<?xml version="1.0" encoding="UTF-8" standalone="no"?>
<!-- Created with Inkscape (http://www.inkscape.org/) -->

<svg
   version="1.1"
   id="svg1"
   width="1255"
   height="1280"
   viewBox="0 0 1255 1280"
   sodipodi:docname="317b.svg"
   inkscape:version="1.3.2 (091e20ef0f, 2023-11-25)"
   xmlns:inkscape="http://www.inkscape.org/namespaces/inkscape"
   xmlns:sodipodi="http://sodipodi.sourceforge.net/DTD/sodipodi-0.dtd"
   xmlns="http://www.w3.org/2000/svg"
   xmlns:svg="http://www.w3.org/2000/svg">
  <defs
     id="defs1" />
  <sodipodi:namedview
     id="namedview1"
     pagecolor="#ffffff"
     bordercolor="#000000"
     borderopacity="0.25"
     inkscape:showpageshadow="2"
     inkscape:pageopacity="0.0"
     inkscape:pagecheckerboard="0"
     inkscape:deskcolor="#d1d1d1"
     showgrid="false"
     inkscape:zoom="0.62890625"
     inkscape:cx="627.2795"
     inkscape:cy="640"
     inkscape:window-width="1920"
     inkscape:window-height="1011"
     inkscape:window-x="0"
     inkscape:window-y="0"
     inkscape:window-maximized="1"
     inkscape:current-layer="layer1" />
  <g
     inkscape:groupmode="layer"
     id="layer1"
     inkscape:label="Layer 1">
    <path
       style="fill:#000000"
       d="m 589.11213,1260.3619 c -36.80942,-18.7506 -39.7831,-20.4838 -72.49798,-42.2544 -59.9981,-39.9267 -74.1353,-51.0067 -120.01149,-94.0583 -18.85607,-17.6952 -26.6201,-26.0184 -55.90144,-59.9275 l -34.00409,-39.3782 -7.66515,21.8782 c -4.21584,12.0331 -12.58519,35.9407 -18.59857,53.1282 -6.01337,17.1874 -11.15841,31.2446 -11.43341,31.2382 -0.275,-0.01 -6.11109,-8.6688 -12.96909,-19.2498 -6.85799,-10.5811 -18.15951,-28.0133 -25.11448,-38.7383 -29.09743,-44.8701 -51.14331,-89.03174 -64.0907,-128.38462 -8.67685,-26.37283 -13.63846,-50.16881 -18.30594,-87.79567 -2.38594,-19.23423 -4.52008,-35.15333 -4.74252,-35.37577 -0.22244,-0.22245 -19.05083,16.90035 -41.84086,38.05066 L 60.5,897.94971 59.778734,890.22486 C 59.382038,885.97619 57.64377,864.05 55.915916,841.5 52.023383,790.69904 52.345704,767.32502 57.577578,721 61.602073,685.36557 65.505416,666.12547 82.579109,597.76406 89.960599,568.2093 96,543.58846 96,543.0511 96,542.51373 74.609254,549.31666 48.46501,558.16871 22.320765,567.02076 0.74829481,574.08163 0.52618649,573.85952 -0.21708645,573.11625 4.9668374,544.66166 8.4289686,530.4811 22.09001,474.52679 53.495044,409.94405 91.274602,360.11357 c 4.425741,-5.83746 21.361988,-26.33684 37.636098,-45.55418 16.27412,-19.21733 29.45001,-35.41733 29.27977,-36 C 158.02023,277.97673 150.43141,261.525 141.32643,242 118.45842,192.96114 110.76923,173.78124 102.02558,143.96804 94.367242,117.85542 94.181314,116.31506 88.650454,33.159242 L 86.432893,-0.18151559 109.46645,0.24835185 C 128.86736,0.61042461 134.94451,1.1115814 148,3.4260495 c 39.17041,6.9441055 75.73015,18.6930185 110.8561,35.6249395 17.48362,8.427712 25.35321,12.886241 58.3345,33.049512 l 25.6906,15.706072 33.8094,-13.436989 C 415.52552,58.935283 439.03212,51.009639 465.11895,44.554478 498.14957,36.381084 513.87731,34.222365 599,26.178562 l 28.5,-2.693152 50,4.687084 c 51.53001,4.830509 69.93267,7.139014 91.5,11.478132 34.01648,6.843757 62.64598,15.812978 106.58586,33.39186 15.35278,6.142135 29.98139,11.98601 32.50802,12.986389 l 4.59389,1.818871 29.40611,-17.978009 C 994.34497,37.925005 1030.6456,21.71503 1075,10.520799 c 30.9604,-7.813833 50.0884,-10.48416852 75.25,-10.505158 17.9714,-0.0149914979 18.75,0.06588086 18.75,1.94753 0,9.815973 -7.3243,108.507959 -8.5373,115.036829 -2.0467,11.01597 -11.2024,41.43141 -18.2119,60.5 -6.7592,18.38758 -11.8707,30.11801 -30.6692,70.38249 -12.7906,27.39598 -14.4765,31.58796 -13.2718,33 37.7777,44.27917 55.3789,65.59181 66.1249,80.06806 37.2621,50.19706 68.8448,115.40026 82.1254,169.54945 3.461,14.1116 8.6625,42.61074 7.9138,43.35948 -0.3715,0.37148 -73.6842,-24.12471 -88.3775,-29.52985 -3.5221,-1.29562 -6.616,-2.14341 -6.8754,-1.88398 -0.2594,0.25943 5.8691,26.02779 13.6189,57.26302 14.9472,60.24405 16.713,68.16798 20.5987,92.43426 4.6765,29.20419 7.216,56.62429 8.1775,88.29567 0.5186,17.0825 0.1426,26.14945 -2.5323,61.0614 -1.7277,22.55 -3.4658,44.46707 -3.8625,48.70461 l -0.7213,7.70461 -41.4408,-38.43045 c -22.7925,-21.13674 -41.6318,-38.2395 -41.8652,-38.00612 -0.2334,0.23337 -2.3675,16.19249 -4.7424,35.46471 -3.6739,29.81187 -5.0795,38.11263 -9.4203,55.62981 -8.7331,35.24278 -17.0316,57.9402 -33.0151,90.30083 -12.6448,25.601 -24.0895,45.7009 -39.9326,70.132 -6.955,10.725 -18.2565,28.1572 -25.11451,38.7383 -6.858,10.581 -12.69409,19.2435 -12.96909,19.2498 -0.275,0.01 -5.42004,-14.0508 -11.43341,-31.2382 -6.01338,-17.1875 -14.38273,-41.0951 -18.59857,-53.1282 l -7.66515,-21.8782 -33.99371,39.3782 c -28.79983,33.3617 -37.11178,42.2946 -54.40143,58.4652 -46.02817,43.0493 -66.8541,59.4187 -122.29865,96.1282 -32.35081,21.4193 -35.83374,23.4424 -72.05357,41.8534 l -38.05956,19.3461 z"
       id="path1" />
    <path
       id="path2"
       style="fill:#552200"
       d="M 1125.1094 43 C 1122.6095 43 1102.9378 47.455278 1091.5 50.611328 C 1067.4349 57.251637 1044.1915 66.586713 1013 82.138672 C 983.24882 96.972537 964.49963 108.12274 933.87305 129.19531 L 918.24609 139.94727 L 877.37305 124.35938 C 807.46355 97.697028 773.02496 87.450783 727 79.619141 C 691.24595 73.535204 671.09991 72 627 72 C 573.78217 72 544.08537 75.11258 496.5 85.675781 C 461.39309 93.468963 435.3138 101.88677 375.05469 124.875 L 335.60742 139.92188 L 326.05469 133.34375 C 273.02055 96.826435 225.92633 71.884226 181.04492 56.542969 C 161.85894 49.98486 129.7557 41.91031 128.37109 43.294922 C 127.09733 44.568691 126.86034 59.743686 127.91602 72.384766 C 129.47732 91.080614 132.93246 109.06272 138.89258 129.5 C 151.77985 173.69055 165.59853 208.14212 193.39844 265.39062 C 199.77929 278.53074 205 289.6823 205 290.17188 C 205 290.66145 199.93707 296.786 193.74805 303.78125 C 163.80329 337.62684 136.92874 374.29811 114.44141 412 C 106.65763 425.05012 66.96988 503 68.109375 503 C 68.518774 503 96.660296 492.87498 130.64453 480.5 C 164.62878 468.12502 192.58175 458 192.76367 458 C 192.94559 458 189.312 463.51252 184.6875 470.25 C 157.21088 510.28105 141.29629 545.52672 129.03906 593.5 C 112.56124 657.99226 103.9306 715.57481 96.439453 811 L 95.773438 819.5 L 100.63672 814.90039 C 105.17129 810.61234 185.96598 737.74568 190.74414 733.63477 L 192.91406 731.76953 L 192.70703 782.13477 C 192.55638 818.86866 192.86154 835.61255 193.83398 844 C 198.87636 887.49052 216.47006 950.01738 237.30664 998.5 C 244.19669 1014.5318 259.7718 1048.0568 260.84961 1049.1738 C 261.20698 1049.5441 269.12999 1033.3441 278.45508 1013.1738 C 287.78016 993.00351 297.35676 972.31447 299.73633 967.19922 L 304.0625 957.89844 L 335.62305 999.19922 C 363.68706 1035.9232 369.08559 1042.4221 384.3418 1057.8457 C 433.48267 1107.5258 472.79918 1141.0286 516 1170.0371 C 544.41631 1189.1181 627.58698 1241.757 628.46875 1241.2188 C 629.03586 1240.8726 653.12506 1225.3352 682 1206.6914 C 774.17168 1147.1786 798.5809 1128.1533 857.34766 1070.0312 L 886.19727 1041.5 L 918.61133 999.65625 L 951.02734 957.8125 L 953.40039 963.15625 C 954.70623 966.09535 963.07265 984.47504 971.99219 1004 C 980.91173 1023.525 989.30177 1041.9511 990.63672 1044.9473 L 993.06445 1050.3945 L 1001.6348 1032.4473 C 1023.7588 986.11056 1038.025 946.93343 1049.502 901 C 1060.6336 856.44812 1061.5 848.01754 1061.5 784.25 C 1061.5 755.51298 1061.6239 732.00042 1061.7754 732 C 1061.927 731.99958 1083.4831 751.35588 1109.6777 775.01367 C 1135.8725 798.67149 1157.4352 817.89682 1157.5957 817.73633 C 1158.0693 817.26273 1152.1844 750.06759 1149.9551 730.5 C 1143.9047 677.39295 1129.9287 607.1263 1117.8652 569.1582 C 1107.0201 535.02477 1090.3056 501.16522 1069.1602 470.48828 C 1064.6759 463.98283 1061.1503 458.51763 1061.3242 458.34375 C 1061.4981 458.16987 1089.4278 468.18912 1123.3906 480.60938 C 1157.3537 493.02961 1185.3611 502.97283 1185.6289 502.70508 C 1186.3303 502.00367 1155.8617 441.43642 1145.209 422.35547 C 1127.8567 391.27456 1107.7609 361.38113 1085.4746 333.5 C 1075.5482 321.08165 1068.9908 313.45562 1052.7988 295.5 L 1048.2891 290.5 L 1064.084 257.5 C 1088.3723 206.75261 1099.9066 178.56054 1110.5215 144 C 1119.2699 115.51658 1122.8284 99.471848 1124.9863 78.789062 C 1126.2368 66.804414 1126.3185 43 1125.1094 43 z M 161.48047 104 C 163.02459 104 189.81274 115.81739 203.5 122.53711 C 221.27395 131.26319 227.90192 135.50232 239.13867 145.32617 C 248.38694 153.41156 264.02789 171.27316 273.60938 184.69141 L 279.80078 193.36328 L 273.15039 198.31055 C 254.46281 212.2148 235.7562 230.59959 227.04688 243.62109 L 222.11719 250.99219 L 216.39648 241.74609 C 201.86774 218.26253 187.30868 188.3207 173.48633 153.5 C 168.90146 141.95001 164.48239 129.125 163.66797 125 C 161.84273 115.75519 160.61843 104 161.48047 104 z M 1088.5566 104.22266 C 1089.0343 104.70029 1086.2509 118.51292 1083.9922 126.87695 C 1079.0788 145.07192 1065.9669 182.31338 1057.7188 201.5 C 1050.1719 219.05507 1037.6607 242.11223 1031.748 249.35938 L 1029.4141 252.2168 L 1021.998 242.85938 C 1017.9187 237.71208 1005.6756 224.53866 994.79102 213.58594 C 983.90642 202.63322 975 193.4962 975 193.28125 C 975 192.1702 984.16234 179.48855 990.11328 172.36328 C 1010.3297 148.15748 1053.6239 116.95631 1081.6113 106.42188 C 1085.2652 105.04654 1088.3907 104.05669 1088.5566 104.22266 z M 335.38477 369.5 L 333.49609 372.5 C 332.45738 374.15 321.49674 391.22534 309.13867 410.44531 C 289.58918 440.84981 286.61074 446.00378 286.2168 450.10352 C 285.67243 455.76889 283.79609 454.35949 315.16797 471.84375 C 339.00031 485.12607 404.71545 524.60211 415 531.81445 C 432.91819 544.38011 449.92901 560.5784 463.67578 578.16406 C 474.96705 592.60853 477.90955 597.21238 481.06836 605.37695 C 484.23632 613.56517 493.11376 654.01892 495.46094 670.96094 C 501.71369 716.09356 497.82915 772.32286 485.51562 814.89062 C 483.6686 821.27581 474.8701 849.22506 465.96484 877 C 448.35786 931.91504 447.42477 936.06683 450.38281 946.24219 C 452.12609 952.23882 465.97011 972.5249 482.64453 993.51367 C 500.78502 1016.3479 543.59854 1056.5053 565.26367 1071.0078 C 576.61019 1078.6031 589.15544 1081.4091 601.19922 1079.043 C 604.66421 1078.3622 607.78819 1077.6267 608.14062 1077.4102 C 608.49306 1077.1936 607.03247 1075.0999 604.89453 1072.7578 C 602.7566 1070.4156 599.73342 1067.0749 598.17578 1065.334 C 595.47372 1062.3141 592.21268 1060.9939 584 1059.5918 C 577.28931 1058.4461 574.58131 1055.8255 569.59961 1045.6523 C 562.41429 1030.9793 555.55381 1025.1053 542 1022.0254 C 528.97861 1019.0665 522.43765 1011.5419 520.03906 996.75977 C 518.23752 985.65722 521.8028 973.26359 528.81641 966.25 C 535.10376 959.96264 549.46562 954.9654 575.45508 950.02344 C 614.6534 942.56974 637.39073 942.33682 671.55078 949.04102 C 699.68241 954.56207 711.85931 959.09565 719.74609 966.98242 C 730.3098 977.54613 731.16968 998.9107 721.53906 1011.5371 C 718.04139 1016.1228 712.14158 1019.3692 702.5 1022.0117 C 685.97916 1026.5396 682.30254 1030.7379 679.50391 1048.2715 C 678.26641 1056.0244 672.53285 1059.8734 659.79297 1061.5059 C 653.5409 1062.3071 650 1066.2667 650 1072.4551 C 650 1075.0581 649.40785 1077.2466 648.5 1078 C 647.675 1078.6847 647 1079.6077 647 1080.0508 C 647 1081.5997 658.31977 1082.2861 664.64258 1081.1211 C 673.42228 1079.5033 679.18312 1076.8105 689 1069.7363 C 727.17844 1042.2247 754.53852 1014.2774 784.85156 971.82812 C 798.99914 952.01641 800.42921 948.94415 800.36719 938.5 C 800.32239 930.94994 799.3796 927.57541 783.58789 878.5 C 761.63777 810.28634 757.30546 793.38403 753.4668 761 C 748.70095 720.79411 750.95233 685.06546 761.40625 635 C 767.79757 604.3909 767.79885 604.38534 782.33398 585 C 797.95628 564.16475 817.54887 545.28131 837.01562 532.29688 C 850.93774 523.01073 915.34299 484.47605 940.33398 470.48047 C 966.28856 455.94525 968 454.56529 968 448.16406 C 968 446.02812 961.49536 435.1968 944.10156 408.36523 C 930.95767 388.08951 920.34405 371.35175 920.51562 371.16992 C 920.68721 370.9881 932.67925 381.66841 947.16406 394.9043 C 982.05464 426.78644 988.55194 434.71834 1001.0762 460.72656 C 1004.8847 468.63543 1007.9989 475.41948 1007.998 475.80273 C 1007.9971 476.18598 994.19012 482.80002 977.31641 490.5 C 960.44268 498.19998 939.18122 507.92571 930.06836 512.11328 L 913.5 519.72852 L 893 568.11328 C 873.39893 614.37773 872.28076 616.71924 867.5 621.5 C 862.72141 626.27859 861.12412 627.04186 831.45117 638.73438 C 798.65356 651.65815 796.65496 652.79226 793.55273 660.21875 C 791.32772 665.54527 791.60243 668.79521 795.08789 678.42773 C 802.12936 697.8878 815.81145 712.49798 835.52344 721.60547 C 841.71172 724.46465 865.72794 732.78461 891 740.82227 C 893.78761 741.70884 891.65042 741.83026 880.5 741.41992 C 837.93394 739.85346 798.94785 728.91792 779.20117 713.00586 C 775.78465 710.25279 772.71828 708 772.38672 708 C 771.46961 708 772.98327 726.95124 775.02539 741.03125 C 780.46616 778.54429 791.53012 810.56334 811.44727 846.44141 C 827.25998 874.92588 834.97137 892.46849 844.00391 920.5 C 846.30676 927.6467 847.2357 932.44612 847.25977 937.31836 C 847.29207 943.86039 846.96966 944.78961 839.26367 960.31836 L 831.23242 976.5 L 777.80859 1031.5 C 748.42524 1061.75 722.06559 1088.5786 719.23047 1091.1191 C 713.21762 1096.5071 701.44212 1102.8505 691.5 1106.0586 C 685.48378 1107.9999 681.75948 1108.3774 665 1108.7441 L 645.5 1109.1719 L 636.25 1102.4863 L 627 1095.8027 L 627 1089.7012 C 627 1082.1576 625.24749 1083.1391 624.80664 1090.9297 L 624.5 1096.3613 L 616 1102.6113 L 607.5 1108.8613 L 590 1108.8301 C 578.966 1108.8101 570.17703 1108.2901 566.21289 1107.4219 C 562.75497 1106.6645 556.82888 1104.7441 553.04492 1103.1543 C 538.39229 1096.9979 535.12508 1094.029 476.80859 1033.8574 L 421.5 976.78711 L 413.5 961.30859 L 405.5 945.82812 L 405.5 937.16406 C 405.5 929.4377 406.02847 926.93129 410.38867 914 C 416.63345 895.47962 423.00966 880.59303 432.46875 862.44727 C 436.61092 854.50118 443.36299 841.55062 447.47266 833.66797 C 466.27773 797.59833 477.28022 758.38607 479.63086 719.06836 C 480.31363 707.64808 480.30241 707.55649 478.3125 709.02148 C 477.20798 709.83464 473.42355 712.68708 469.90234 715.35938 C 466.38116 718.03166 460.49415 721.7333 456.82031 723.58594 C 448.38456 727.83993 422.70099 735.31873 407.40625 737.97461 C 396.14598 739.92992 364.09056 742.54932 360.32617 741.82227 C 359.32211 741.62834 366.37502 739.05486 376 736.10352 C 414.01616 724.44645 426.66682 718.36062 439.5625 705.52148 C 448.9919 696.13342 453.92151 688.35528 458.05273 676.34766 C 461.83772 665.3464 459.4495 656.09207 451.6543 651.55469 C 449.36963 650.22484 434.67496 644.07943 419 637.89844 C 391.00761 626.86039 390.40007 626.56044 384.94336 621.08008 C 378.82857 614.93877 381.68263 621.04511 352.19727 551 L 339.35938 520.5 L 332.37109 516.99805 C 328.52748 515.07208 307.18388 505.20015 284.94141 495.06055 C 262.69893 484.92096 244.34487 476.5181 244.15625 476.38672 C 243.96762 476.25534 247.01478 469.92724 250.92773 462.32422 C 258.8059 447.01668 267.51591 434.21597 277.49219 423.28516 C 282.7192 417.558 317.20608 385.41857 332.44141 372.07617 L 335.38477 369.5 z " />
    <path
       id="path3"
       style="fill:#d45500"
       d="M 583.95117 959 C 578.58739 959 554.33475 965.84884 546.45117 969.58984 C 539.00439 973.12358 532.94854 985.37948 534.95898 992.8457 C 535.98869 996.66975 541.33541 1005.0022 542.75586 1004.9961 C 543.16491 1004.9961 543.52623 1003.3069 543.55859 1001.2461 C 543.64599 995.67669 544.70102 992.50815 547.625 989.0332 C 552.93192 982.72628 564.61308 979.04022 579.36523 979.01562 L 588.23047 979 L 587.57617 973.25 C 586.03659 959.73749 585.84753 959 583.95117 959 z M 600.06836 959.10352 C 597.6995 959.09955 595.8055 959.52933 594.98047 960.52344 C 593.34578 962.49312 594.29962 976.72736 596.19336 978.62109 C 597.38804 979.81577 605.1871 981.58151 610.60156 981.88281 C 611.75698 981.94711 614.11755 981.50742 615.84766 980.9043 C 620.9564 979.12338 621.7637 971.86681 617.56641 965.46094 C 615.27114 961.95791 606.12211 959.11364 600.06836 959.10352 z " />
    <path
       id="path4"
       style="fill:#ffff00"
       d="M 875.24609 534.14258 C 875.13167 534.13922 875.00221 534.1683 874.85547 534.22461 C 872.62149 535.08187 850.76195 550.34161 836 561.34766 C 818.68888 574.25428 811.87802 580.70763 805.76367 590 C 800.53306 597.94931 785 628.19576 785 630.43164 C 785 632.06054 790.31416 631.63324 804.25 628.88477 C 828.00724 624.19928 845.36028 614.65849 855.73828 600.57617 C 866.47716 586.00414 873.45862 565.22663 875.56055 541.5918 C 876.07326 535.82661 876.04703 534.16608 875.24609 534.14258 z M 378.42773 534.23828 C 378.23541 534.43061 378.50714 538.73259 379.03125 543.79883 C 382.76893 579.92595 396.13411 605.16552 418.18555 617.74023 C 430.15405 624.56521 454.04186 631.61523 466.19922 631.91016 L 469.89844 632 L 468.34375 628.25 C 464.9311 620.01804 452.79904 597.05874 448.05273 589.84961 C 442.3108 581.12822 437.25636 576.30494 421 564.0293 C 406.62895 553.17732 378.8958 533.77022 378.42773 534.23828 z " />
  </g>
</svg>
