<?xml version="1.0" encoding="UTF-8" standalone="no"?>
<!-- Created with Inkscape (http://www.inkscape.org/) -->

<svg
   version="1.1"
   id="svg1"
   width="543.86371"
   height="1080.2721"
   viewBox="0 0 543.86371 1080.2721"
   sodipodi:docname="336c.svg"
   inkscape:version="1.3.2 (091e20ef0f, 2023-11-25)"
   xmlns:inkscape="http://www.inkscape.org/namespaces/inkscape"
   xmlns:sodipodi="http://sodipodi.sourceforge.net/DTD/sodipodi-0.dtd"
   xmlns="http://www.w3.org/2000/svg"
   xmlns:svg="http://www.w3.org/2000/svg">
  <defs
     id="defs1" />
  <sodipodi:namedview
     id="namedview1"
     pagecolor="#ffffff"
     bordercolor="#000000"
     borderopacity="0.25"
     inkscape:showpageshadow="2"
     inkscape:pageopacity="0.0"
     inkscape:pagecheckerboard="0"
     inkscape:deskcolor="#d1d1d1"
     showgrid="false"
     inkscape:zoom="0.69078952"
     inkscape:cx="256.95236"
     inkscape:cy="529.10473"
     inkscape:window-width="1920"
     inkscape:window-height="1011"
     inkscape:window-x="0"
     inkscape:window-y="0"
     inkscape:window-maximized="1"
     inkscape:current-layer="layer1" />
  <g
     inkscape:groupmode="layer"
     id="layer1"
     inkscape:label="Layer 1"
     transform="translate(-81.47676,-53.500707)">
    <path
       id="path2"
       style="fill:#e9c6af"
       d="M 585.07832 68.160863 C 574.50528 68.217122 561.35089 71.520077 546.11543 78.06516 C 539.81882 80.77016 534.66621 83.486355 534.66621 84.100316 C 534.66621 84.714278 530.61621 87.591242 525.66621 90.494848 C 501.71596 104.54377 485.20019 119.21496 463.93379 145.33274 C 443.26817 170.71268 434.64562 184.69548 424.8791 208.66672 C 415.08106 232.71535 405.75903 271.76778 404.10762 295.6843 C 403.5879 303.2111 402.57737 309.95673 401.86153 310.67258 C 401.01504 311.51907 397.08258 311.19784 390.61348 309.75657 C 384.11566 308.3089 374.42497 307.52768 362.66621 307.50071 C 331.96286 307.43031 310.72276 314.6473 291.54903 331.66477 C 288.73381 334.16339 286.0925 335.87036 285.67989 335.45774 C 285.26727 335.04512 287.14735 331.36782 289.85762 327.28586 C 297.36401 315.98042 297.53794 315.03664 295.30293 297.98704 C 291.30211 267.46695 282.25162 239.03599 266.01778 206.00071 C 249.69717 172.78884 230.28979 145.88807 206.20137 123.08664 C 174.86402 93.423596 134.68625 76.369753 111.33418 82.82102 C 103.32719 85.03304 96.600665 92.806777 94.498244 102.27805 C 91.712775 114.82641 92.107922 189.65432 95.07051 210.55149 C 105.41731 283.53455 130.77812 340.06478 166.7541 370.3425 C 176.42723 378.48351 194.95771 389.33274 199.18965 389.33274 C 200.51903 389.33274 203.54323 384.88107 207.32051 377.36008 C 210.62787 370.77474 213.33418 364.86518 213.33418 364.22727 C 213.33418 363.58936 208.38418 359.76398 202.33418 355.72727 C 179.68737 340.61676 168.20249 327.29586 156.01778 302.00071 C 140.8318 270.47501 117.84632 204.16505 112.73848 177.14524 C 110.06346 162.99471 108.82636 141.33398 110.46504 137.33274 C 111.67815 134.37062 111.84111 134.71073 111.91621 140.38547 C 112.05672 151.00182 114.69144 171.94591 117.48653 184.66672 C 120.67852 199.19396 128.08498 221.6167 142.59395 260.66672 C 161.30892 311.03694 169.58116 324.97909 190.13496 340.79954 C 203.05558 350.74465 214.57691 358.66672 216.11934 358.66672 C 216.75348 358.66672 218.26633 357.14801 219.48262 355.29172 C 221.64098 351.99765 221.53391 351.65309 215.02168 340.95774 C 202.20662 319.91093 199.5801 313.0654 197.27168 294.70383 C 195.88216 283.65132 196.69239 266.66672 198.60957 266.66672 C 199.14088 266.66672 201.26766 270.86738 203.33418 276.00071 C 205.40069 281.13403 207.5944 285.33274 208.21114 285.33274 C 208.82787 285.33274 209.33418 265.34246 209.33418 240.90891 C 209.33418 188.04711 209.13706 186.92599 197.6877 174.5593 C 188.10847 164.21259 168.50851 148.49937 141.67793 129.655 C 122.95513 116.50511 106.70124 102.66672 109.97871 102.66672 C 112.09913 102.66672 129.25617 113.23135 159.33418 133.0593 C 209.62518 166.21202 217.56482 177.73994 226.61153 230.73704 C 228.92077 244.265 233.77709 271.63051 237.40449 291.54954 C 241.0319 311.46856 244.0002 329.29852 244.0002 331.17063 C 244.0002 333.04273 242.27858 336.54498 240.17403 338.95383 C 233.84588 346.19694 224.03078 362.2097 217.99043 375.14719 C 210.51943 391.14892 205.51042 405.51402 195.83809 438.66672 C 186.94871 469.13578 180.90302 482.87151 170.3127 496.66672 C 166.37195 501.80005 159.94785 511.99941 156.03535 519.33274 C 152.12287 526.66606 144.51369 540.3709 139.12715 549.78782 C 133.74061 559.20475 129.33418 567.11818 129.33418 567.3718 C 129.33418 568.74391 141.03382 565.6617 153.16231 561.09446 C 160.76829 558.23027 167.57091 556.07897 168.27949 556.31516 C 168.98807 556.55136 164.08934 561.75335 157.39278 567.87375 C 145.94122 578.34005 140.0002 586.38321 140.0002 591.42258 C 140.0002 593.01351 140.64357 593.33748 142.33418 592.59836 C 152.84921 588.00126 173.55207 585.1172 175.33418 588.00071 C 175.7874 588.73404 175.0729 589.33924 173.74629 589.34641 C 169.35687 589.37011 157.80652 595.61431 152.68965 600.73118 C 149.9191 603.50171 146.25585 608.82141 144.54903 612.55149 C 141.26704 619.72392 136.71925 635.83108 137.69942 636.81125 C 138.01844 637.13027 146.5189 634.37858 156.58809 630.69602 C 166.65728 627.01346 175.4514 624.00071 176.13106 624.00071 C 176.81072 624.00071 175.89718 626.3265 174.10176 629.17063 C 169.76188 636.04543 167.16306 642.44296 166.06074 648.9675 L 165.15645 654.33274 L 176.91035 654.98899 C 187.92273 655.60485 190.26849 656.31903 214.0002 666.28977 C 251.98025 682.24685 263.5691 685.57647 299.03535 690.70969 C 339.9305 696.62868 363.51678 696.94045 397.26192 692.01047 C 420.90967 688.55567 446.2702 683.41085 457.33418 679.82297 C 462.10085 678.27722 473.49476 673.45578 482.65449 669.11008 C 515.01878 653.75535 526.72609 644.17974 536.85176 624.78 L 542.16035 614.60813 L 544.61934 622.30344 C 547.04816 629.90664 547.0924 629.95231 548.2502 626.00071 C 550.30601 618.98411 549.95992 608.94457 547.5002 604.25657 C 544.78444 599.08057 535.84655 593.05113 527.3791 590.68039 C 519.91777 588.59135 520.77661 586.66672 529.17012 586.66672 C 537.62995 586.66672 548.28677 589.95786 553.19356 594.08664 C 557.08592 597.36186 557.21412 597.38022 558.59004 594.8093 C 562.83818 586.87157 558.54756 575.84172 546.15059 562.8386 L 538.0002 554.28977 L 548.0002 555.02414 C 553.84747 555.45297 561.77066 557.17946 567.08028 559.18235 L 576.16035 562.60813 L 575.24434 559.63743 C 572.5542 550.91422 560.10188 537.77554 539.08614 521.49094 C 529.49565 514.05952 525.63714 509.91844 527.01778 508.53782 C 527.24509 508.31051 530.60162 509.0542 534.47676 510.19016 C 538.35191 511.32613 541.86101 511.91724 542.27559 511.50266 C 542.69017 511.08808 539.62604 507.07305 535.46699 502.58079 C 524.30397 490.52339 520.02019 480.64058 508.71309 440.8718 C 503.17187 421.38251 496.88182 400.67451 494.73653 394.85618 C 486.77282 373.25745 475.55278 353.69492 462.29512 338.28977 C 454.79599 329.57592 454.93236 331.28257 459.89278 308.01243 C 463.25123 292.25738 466.08227 268.4911 468.68965 234.18235 C 469.79663 219.61631 471.65345 203.41628 472.81465 198.18235 C 475.87709 184.37881 482.56655 171.43095 492.66817 159.75657 C 503.02304 147.78949 512.59446 140.21175 548.0002 115.94407 C 562.30018 106.14262 578.44557 94.940485 583.8791 91.051488 C 589.31263 87.16249 594.00428 84.227441 594.30489 84.528051 C 596.68651 86.90967 580.07608 101.14651 542.01973 129.3425 C 528.8306 139.11434 514.80452 150.15903 510.84981 153.88743 C 502.32633 161.92312 487.31859 180.77664 485.37324 185.89329 C 483.67989 190.34717 483.46725 281.11675 485.15449 279.26633 C 485.78973 278.56966 487.38468 273.92678 488.69942 268.94797 C 490.01414 263.96917 491.50832 259.63783 492.01778 259.32297 C 493.6826 258.29405 496.09783 265.53801 497.3127 275.19797 C 499.68877 294.09104 494.00467 318.54609 483.14082 336.16672 L 477.32246 345.60227 L 481.58614 351.13547 C 483.93047 354.17797 486.02642 356.91143 486.24434 357.20969 C 487.14649 358.44445 509.38452 342.37982 518.57246 333.85618 C 532.54289 320.89584 543.15053 307.01852 549.91621 292.85227 C 557.77696 276.39311 588.69558 183.81001 591.38887 168.66672 C 592.56271 162.06674 593.86935 146.78536 594.29121 134.70774 C 594.85155 118.66579 595.40228 113.63439 596.33418 116.03977 C 598.31718 121.15825 596.42139 157.51035 593.38496 172.5886 C 591.91677 179.87934 588.84456 191.88065 586.55879 199.25657 C 578.09481 226.56881 555.64235 288.77065 550.71504 298.55735 C 540.15782 319.52631 524.12553 337.11061 502.33418 351.61985 C 495.18419 356.38048 489.33418 360.5251 489.33418 360.83079 C 489.33418 362.84078 501.62631 385.33274 502.72481 385.33274 C 504.94381 385.33274 517.3944 378.70242 526.0002 372.93821 C 537.71903 365.08887 555.54761 346.47999 565.18184 332.04172 C 596.87 284.55254 614.67037 212.57105 614.65059 132.00071 C 614.64259 97.989849 613.02524 83.596629 608.55293 77.733129 C 603.64251 71.295241 595.65136 68.104605 585.07832 68.160863 z M 213.0041 207.18039 C 210.88249 207.95814 211.30398 275.17414 213.58614 290.36789 C 214.38751 295.70316 214.6952 300.41508 214.26973 300.84055 C 213.84426 301.26602 210.76403 297.35207 207.42403 292.14133 C 204.08403 286.93059 200.95976 282.66672 200.48067 282.66672 C 198.80796 282.66672 201.27647 302.20326 204.11153 311.39719 C 208.76759 326.49652 220.4214 346.69608 224.44746 346.64719 C 225.30167 346.63679 229.40751 343.62552 233.57246 339.95383 L 241.14473 333.27805 L 237.27754 321.83274 C 235.14996 315.53853 231.60728 301.00177 229.40449 289.52805 C 225.65914 270.01957 224.53219 263.78826 219.31074 233.66672 C 216.30023 216.29968 214.34612 207.95951 213.10762 207.19407 C 213.07266 207.17246 213.03778 207.16805 213.0041 207.18039 z M 479.26778 212.29954 C 479.05029 212.28241 478.80557 213.13584 478.46699 214.66672 C 477.89934 217.23339 476.80701 228.63406 476.04121 240.00071 C 473.25809 281.31046 469.47041 302.89081 461.61348 322.1843 C 458.40607 330.0604 458.65338 330.65356 467.88301 337.19016 C 473.31081 341.03425 473.94566 341.19163 476.10762 339.23508 C 477.3963 338.06885 480.62305 332.98187 483.27754 327.93039 C 485.93202 322.87891 489.0187 315.87895 490.13692 312.37375 C 492.4373 305.16293 494.34922 275.99111 492.51973 276.01633 C 491.86744 276.02533 488.73178 280.52534 485.55098 286.01633 C 482.37018 291.50734 479.36168 296.00071 478.86543 296.00071 C 478.36917 296.00071 478.68512 288.3507 479.56856 279.00071 C 481.4071 259.54222 481.75063 235.85619 480.41621 220.53391 C 479.9146 214.77425 479.63025 212.32807 479.26778 212.29954 z M 217.64082 680.59446 C 216.63576 680.47531 215.98902 680.81028 215.27559 681.55149 C 212.82046 684.10216 196.78356 725.11908 192.68379 739.33274 C 186.14213 762.01237 182.66621 784.72675 182.66621 804.79954 C 182.66621 811.60631 183.20291 817.50818 183.85762 817.91282 C 184.51234 818.31746 186.41307 814.77956 188.08223 810.05149 C 189.75138 805.32341 191.61535 801.76271 192.22481 802.13938 C 192.83427 802.51604 193.33357 806.83813 193.33418 811.74485 C 193.33618 825.21724 195.72301 848.39953 198.64668 863.33274 C 206.94365 905.71116 225.35893 936.55978 248.91231 947.53586 C 264.294 954.70387 266.38044 953.42553 259.55293 941.01243 C 254.61271 932.03057 252.68848 926.58084 251.30879 917.66672 C 250.04336 909.49083 252.48448 910.59914 255.9084 919.75461 C 261.38901 934.40961 273.72984 946.66672 283.0041 946.66672 C 287.81587 946.66672 294.70981 941.41459 297.88301 935.33274 C 300.26075 930.77546 300.66209 927.67252 300.63301 914.00071 C 300.61421 905.18174 299.7993 894.82641 298.8166 890.92844 C 297.83601 887.03887 297.3042 883.58537 297.63496 883.25461 C 298.89169 881.99788 305.23191 895.71444 307.41817 904.41868 L 309.70137 913.50461 L 312.09785 909.85227 C 316.23162 903.55071 319.0681 888.91476 318.35371 877.57493 C 317.45068 863.24092 314.10204 855.01457 297.21504 825.63743 C 289.09096 811.50454 281.19713 796.50387 279.67207 792.30344 C 275.94065 782.02602 275.87895 768.12282 279.52949 760.00071 L 282.22676 754.00071 L 282.20918 766.00071 C 282.18738 781.84366 283.85274 786.14079 301.31856 815.33274 C 324.46887 854.02563 327.17958 860.98957 327.27364 882.00071 C 327.35963 901.2023 323.01055 914.70882 314.01582 923.17454 C 311.02969 925.98504 308.89208 929.82645 307.42207 935.02219 C 304.66359 944.77202 296.48168 953.79765 288.66621 955.7136 C 260.35203 962.65479 257.55109 963.07407 251.26192 961.31321 C 224.34223 953.77615 200.15376 917.23758 189.36153 867.80539 C 187.97735 861.46538 184.94139 852.50681 182.61348 847.89524 C 178.83956 840.41915 178.22165 839.78937 176.92207 842.0886 C 175.6049 844.41895 175.3646 844.21798 174.41817 840.00071 C 171.97478 829.11296 171.7062 801.9313 173.85371 782.78391 C 175.03916 772.21445 175.74743 763.30264 175.42598 762.98118 C 174.15184 761.70705 160.47157 776.04471 151.12715 788.44797 C 133.93905 811.26251 119.47586 844.34235 113.36738 874.81321 C 108.51456 899.02056 107.32738 921.86695 109.73653 944.66672 C 112.31766 969.09411 118.29442 993.03017 124.99629 1005.7839 C 128.84832 1013.1143 146.31006 1036.9383 153.36348 1044.487 C 153.95647 1045.1217 156.44155 1044.147 158.88692 1042.321 C 165.57483 1037.3272 168.64701 1036.0044 178.19551 1034.0066 C 188.01684 1031.9517 197.23719 1032.9092 206.0002 1036.8933 C 210.01329 1038.7178 214.63349 1039.3189 224.66621 1039.3249 C 236.85174 1039.3349 238.54606 1039.655 244.33418 1043.0573 C 247.81751 1045.1049 250.66621 1047.3003 250.66621 1047.9363 C 250.66621 1048.5724 247.51621 1048.2541 243.66621 1047.2292 C 233.3578 1044.485 225.5395 1044.8945 216.25606 1048.6667 C 206.3987 1052.6721 206.26928 1052.6839 207.30684 1049.4148 C 207.97748 1047.3018 207.20227 1046.5555 203.06465 1045.3406 C 185.83011 1040.2795 172.02337 1042.9209 161.34395 1053.323 C 137.17291 1076.8662 143.099 1121.2129 171.33418 1128.0866 C 173.53418 1128.6222 181.14181 1129.1229 188.24043 1129.198 L 201.14668 1129.3327 L 198.02559 1121.655 C 190.54046 1103.2339 188.66427 1084.4075 193.46895 1075.9499 C 195.18308 1072.9325 195.39726 1073.7988 196.11934 1086.6667 C 196.93457 1101.1946 198.38168 1106.7537 203.41231 1114.6667 C 211.27853 1127.0399 216.60362 1129.7438 231.84395 1129.1023 C 245.13728 1128.5426 250.75123 1125.7282 256.61153 1116.6902 C 261.67085 1108.8876 262.88225 1102.7368 262.41621 1087.2116 C 262.18699 1079.5756 262.3941 1073.3293 262.8752 1073.3308 C 264.43715 1073.3408 267.941 1085.4916 268.80098 1093.8855 C 269.73143 1102.9672 267.29696 1114.9256 262.66817 1123.9988 L 259.94551 1129.3327 L 268.97285 1129.2585 C 283.30022 1129.1391 286.49882 1127.4655 291.77364 1117.3327 C 296.11402 1108.9948 296.25868 1108.2359 295.60176 1097.3327 C 295.03672 1087.9543 293.16031 1080.5951 284.72871 1054.6667 C 270.72025 1011.5888 264.13596 985.34909 270.08614 996.31516 C 272.21962 1000.2471 290.71864 1048.6085 298.01582 1069.3327 C 300.46885 1076.2993 303.22449 1085.9 304.14082 1090.6667 C 305.05716 1095.4334 306.62065 1100.2327 307.61543 1101.3327 C 311.91796 1106.0903 393.10028 1103.8393 399.17989 1098.7937 C 400.18723 1097.9577 401.38636 1095.3364 401.84395 1092.9695 C 402.97153 1087.1372 437.6433 996.00071 438.73457 996.00071 C 439.66187 996.00071 438.46094 1004.6649 436.09981 1015.0066 C 434.01817 1024.1242 427.43428 1044.3855 419.30879 1066.6843 C 410.15139 1091.8151 408.41883 1100.4726 410.59395 1110.1921 C 411.84155 1115.767 413.59549 1118.9516 417.88887 1123.4323 L 423.54317 1129.3327 L 433.91426 1129.3327 C 443.26897 1129.3327 444.19163 1129.1054 443.32442 1127.0007 C 437.44557 1112.7332 436.03755 1086.8879 440.6916 1078.6667 L 443.33418 1074.0007 L 444.01582 1092.0007 C 444.58401 1106.9973 445.17438 1110.8892 447.55293 1115.3327 C 453.56901 1126.5714 459.13374 1129.3338 475.7541 1129.3308 C 489.58076 1129.3308 494.63284 1127.2581 500.85176 1119.0437 C 507.87465 1109.7673 510.65032 1100.4132 510.77364 1085.6159 L 510.88301 1072.6667 L 513.48653 1078.0007 C 518.27961 1087.8186 515.93968 1106.5315 507.35957 1127.0007 C 506.46737 1129.1292 507.50879 1129.3327 519.23262 1129.3327 C 537.93968 1129.3327 545.91145 1125.1901 552.66621 1111.9558 C 562.54881 1092.5932 558.84544 1069.4548 543.37324 1053.9011 C 532.70504 1043.1766 518.72294 1040.0228 502.80879 1044.7488 L 495.79903 1046.8288 L 498.01387 1050.2077 C 500.18694 1053.5243 500.17022 1053.5678 497.11348 1052.6238 C 495.40126 1052.0951 492.22761 1050.7586 490.06074 1049.655 C 483.55398 1046.341 471.14859 1046.0771 461.76192 1049.0515 C 453.99254 1051.5134 453.60814 1051.5247 455.01973 1049.2644 C 458.09587 1044.3388 466.72301 1040.9204 478.58028 1039.9304 C 484.86067 1039.4059 495.28154 1037.3264 501.73653 1035.3093 C 510.95825 1032.4276 515.11772 1031.7914 521.15254 1032.3386 C 528.42709 1032.9983 541.43607 1038.2615 543.31856 1041.3073 C 543.7804 1042.0546 545.49595 1042.6667 547.13106 1042.6667 C 550.5886 1042.6667 555.5376 1035.1552 563.82637 1017.3327 C 573.63358 996.24521 578.79927 975.7915 581.42012 947.66672 C 585.5351 903.50823 572.60149 848.65588 548.31074 807.24094 C 541.50671 795.64028 529.30246 778.25314 528.51582 779.03977 C 528.18996 779.36563 528.80458 789.16379 529.88106 800.81516 C 530.95754 812.46653 532.23911 827.75677 532.72871 834.79172 C 533.59286 847.2083 533.52606 847.65566 530.41426 850.12375 C 525.78958 853.79178 525.653 854.1663 523.3459 869.70383 C 520.7089 887.46311 514.55686 909.55393 508.8166 921.86789 C 500.6193 939.4527 487.45631 953.85191 475.57832 958.23118 C 469.4845 960.47789 457.28851 960.33667 450.5002 957.94016 C 447.29133 956.80732 443.29485 956.22487 441.61739 956.64524 C 431.52116 959.17535 416.50723 947.55361 413.19942 934.64719 C 411.83243 929.31349 409.55947 925.57607 403.85371 919.28 C 393.17863 907.50047 390.01566 897.90831 390.01973 877.33274 C 390.02373 857.79692 390.0036 857.85502 410.96504 816.66672 C 421.09293 796.76586 423.23735 788.91266 422.13887 775.74094 C 421.66151 770.01702 421.61812 765.33274 422.04317 765.33274 C 422.46823 765.33274 424.08492 768.1834 425.63496 771.66672 C 430.45779 782.50488 429.64719 791.31893 422.11153 810.00071 C 418.56187 818.8007 413.04686 831.2141 409.85567 837.58664 C 402.62117 852.03331 398.66621 866.03977 398.66621 877.21555 C 398.66621 892.10306 406.68718 915.45871 410.38301 911.33274 C 411.03989 910.59941 412.3478 906.4007 413.28926 902.00071 C 415.17481 893.18838 420.21028 880.85225 422.49824 879.43821 C 423.47334 878.83556 423.75441 879.77677 423.34199 882.26633 C 416.54361 923.3043 419.84974 941.34412 434.91621 945.4011 C 447.89304 948.89539 460.98144 937.10485 467.92207 915.66672 C 468.81239 912.91673 470.12059 910.66672 470.83028 910.66672 C 473.69095 910.66672 468.75593 929.27182 462.72676 941.21555 C 460.39782 945.82915 458.68234 949.79222 458.91426 950.02414 C 459.78314 950.89302 472.32975 947.96997 476.76778 945.86399 C 487.60079 940.72338 498.26645 924.03565 506.54121 899.28196 C 512.72302 880.78928 515.11037 864.82845 515.06074 842.33274 C 515.03684 831.51609 515.22407 822.66672 515.47676 822.66672 C 515.72945 822.66672 517.12459 824.91673 518.57637 827.66672 L 521.21504 832.66672 L 521.27364 826.28196 C 521.49515 802.27675 513.84944 761.29943 503.5041 731.05735 C 497.30594 712.93851 483.98305 682.66672 482.20723 682.66672 C 481.97297 682.66672 475.23132 685.00403 467.22481 687.86008 C 451.70251 693.39714 424.24552 699.82761 401.33418 703.29172 C 381.28804 706.32263 344.02508 707.3545 324.23067 705.42649 C 286.84368 701.78493 239.54378 691.09828 222.16231 682.36789 C 220.01033 681.287 218.64588 680.7136 217.64082 680.59446 z " />
    <path
       style="fill:#803300"
       d="m 369.94594,594.60364 c 10.2008,-5.17259 12.48358,-7.31707 13.48795,-12.67081 1.70164,-9.07062 -1.22238,-11.49171 -16.50151,-13.66319 -9.783,-1.39037 -28.0131,0.75424 -31.58083,3.71519 -3.8259,3.17522 -4.86402,7.67207 -2.87185,12.44001 1.37941,3.30139 4.03569,5.44967 11.46155,9.26955 5.3163,2.73473 11.55437,4.96463 13.86237,4.95534 2.308,-0.009 7.77205,-1.83003 12.14232,-4.04609 z"
       id="path3" />
    <path
       id="path4"
       style="fill:#ffff00"
       d="M 442.93574 470.58664 C 441.12455 470.55415 439.20674 470.99789 437.25996 472.03977 C 434.09041 473.73607 430.64981 480.15987 430.71309 484.26633 C 430.81684 490.99915 437.01877 497.18305 443.76973 497.28586 C 445.47614 497.31186 448.62614 495.57984 450.76973 493.43625 C 459.39112 484.81487 452.71622 470.76214 442.93574 470.58664 z M 262.0002 470.66672 C 256.29633 470.66672 250.66621 477.29027 250.66621 484.00071 C 250.66621 490.71113 256.29633 497.33274 262.0002 497.33274 C 264.13336 497.33274 267.08619 495.78581 269.43574 493.43625 C 272.4924 490.3796 273.33418 488.34438 273.33418 484.00071 C 273.33418 477.29027 267.70406 470.66672 262.0002 470.66672 z " />
    <path
       style="fill:#000000"
       d="m 187.00348,1133.6537 -29.66318,-0.3714 -7.19031,-7.1904 c -6.8073,-6.8073 -7.34016,-7.8411 -10.00349,-19.4085 -4.47592,-19.4399 -3.3842,-31.1434 4.31947,-46.3058 1.94372,-3.8256 3.53403,-7.6419 3.53403,-8.4806 0,-0.8387 -4.35,-6.1749 -9.66667,-11.8583 -11.72065,-12.5291 -16.5645,-20.4265 -26.04721,-42.46723 -11.2003,-26.03298 -12.854038,-35.66747 -12.857245,-74.90487 -0.0025,-30.39091 0.246469,-33.83318 3.573535,-49.41115 6.61943,-30.99342 18.63541,-60.23216 34.52383,-84.00757 8.80061,-13.16922 25.04955,-31.09952 34.35926,-37.9146 7.09291,-5.19228 9.84375,-10.98475 22.04987,-46.43042 l 10.01991,-29.09708 -10.23964,-4.73101 c -9.45686,-4.36934 -10.85667,-4.65833 -18.31098,-3.78033 -15.78681,1.85945 -15.75178,1.86601 -17.58802,-3.29449 -0.91328,-2.56666 -2.03766,-8.10742 -2.49862,-12.31279 l -0.83811,-7.64613 -4.90662,2.53636 c -2.69865,1.395 -7.90471,4.68575 -11.56903,7.31279 -3.66432,2.62704 -7.37115,4.77644 -8.23739,4.77644 -4.25728,0 -3.10683,-26.61831 1.82692,-42.26995 2.06576,-6.55336 2.05241,-7.79122 -0.21748,-20.16244 l -2.41836,-13.18042 -13.04006,0.13421 c -7.17204,0.0738 -13.46269,-0.28841 -13.97923,-0.80495 -0.51653,-0.51653 3.49823,-5.71556 8.92168,-11.55339 5.42346,-5.83782 11.27914,-13.13776 13.01263,-16.22209 l 3.15179,-5.60785 -4.84572,0.56571 c -2.66514,0.31114 -4.84571,0.33652 -4.84571,0.0564 0,-0.28012 4.49745,-6.20386 9.99432,-13.16386 10.9834,-13.90688 11.02421,-14.15709 3.60663,-22.11078 -1.8736,-2.00902 -3.15029,-3.86517 -2.83708,-4.12478 0.3132,-0.2596 3.86946,-1.50238 7.9028,-2.76172 18.30711,-5.7161 34.00962,-23.06044 41.76095,-46.12741 7.1754,-21.35311 17.17518,-57.3746 16.45124,-59.26116 -0.41856,-1.09073 -5.43753,-4.33475 -11.15327,-7.20892 -28.30688,-14.23419 -48.44587,-37.25725 -68.40098,-78.19658 -17.280055,-35.45127 -26.595074,-71.19933 -31.365547,-120.37093 -2.3724,-24.45347 -2.428355,-64.21248 -0.117952,-83.80984 1.562752,-13.255619 2.360465,-15.971689 7.440428,-25.333336 7.74219,-14.267753 13.823321,-20.492942 19.989061,-20.462593 8.56202,0.04214 27.20913,3.748059 38.16376,7.584645 12.64085,4.427146 39.07854,19.878167 52.86285,30.894724 27.66117,22.10708 53.67248,55.99316 73.58015,95.85608 17.32916,34.69977 24.77111,59.06434 30.94363,101.30792 0.72002,4.92772 1.22424,5.0745 8.15202,2.37319 16.2134,-6.32199 25.98605,-7.96143 47.69365,-8.00098 11.73333,-0.0214 23.27603,0.39467 25.65044,0.92455 4.94063,1.10257 4.51024,2.10881 6.97044,-16.29676 8.60584,-64.38306 38.76274,-125.45103 82.39343,-166.84736 12.05461,-11.43728 38.63248,-31.819289 41.49193,-31.819289 0.82156,0 1.49375,-0.531635 1.49375,-1.181411 0,-0.649777 2.25,-2.231518 5,-3.514981 2.75,-1.283463 9.18647,-4.801828 14.30326,-7.818588 11.64788,-6.867364 27.33252,-12.418988 42.03008,-14.876669 14.80984,-2.476457 20.03982,-2.382902 23.55176,0.421299 3.36129,2.683915 12.44823,14.462415 12.44823,16.13541 0,0.628091 1.10792,2.572899 2.46203,4.321795 5.40944,6.986508 7.41457,66.052514 3.50585,103.273144 -5.55213,52.86992 -16.43246,96.10681 -32.61882,129.6226 -18.74328,38.81019 -38.98148,61.92037 -70.43645,80.43199 -6.3686,3.74799 -11.81122,7.02993 -12.09472,7.29319 -0.2835,0.26326 2.32209,10.5467 5.79021,22.85209 3.46811,12.30539 7.77371,27.77344 9.56801,34.37344 6.50606,23.9314 13.56641,37.30498 23.58371,44.67178 5.8714,4.31788 16.21141,7.99488 22.48219,7.99488 2.0669,0 3.758,0.41139 3.758,0.91419 0,0.50281 -2.44503,3.81385 -5.43339,7.35786 l -5.43338,6.44367 8.23884,10.30881 c 4.53137,5.66984 9.72266,13.23016 11.5362,16.80071 5.94454,11.70372 9.20676,34.75958 5.3689,37.94473 -1.30169,1.0803 -3.7037,-0.33468 -9.82615,-5.78838 -4.45682,-3.97001 -8.36537,-6.95614 -8.68567,-6.63584 -0.3203,0.3203 0.003,4.12246 0.71869,8.44924 1.43422,8.67211 0.11237,15.56736 -6.30164,32.87167 -3.75532,10.13145 -4.35323,18.79141 -2.20369,31.9179 0.71313,4.35484 1.05255,8.16194 0.75428,8.46021 -1.92916,1.92916 -9.96534,-2.17327 -15.43778,-7.88092 l -6.25698,-6.5259 -11.18578,11.11965 c -9.20803,9.15359 -28.52,23.13157 -34.89401,25.25624 -0.70663,0.23555 1.73651,7.30379 5.4292,15.7072 3.6927,8.40342 10.16013,25.28898 14.37208,37.52347 7.4099,21.52361 7.98194,22.64712 17.65068,34.66667 43.3934,53.94388 62.16672,108.68735 59.81502,174.42212 -0.98543,27.5449 -3.38271,42.02197 -10.04589,60.66667 -7.31745,20.4754 -10.86617,28.1001 -18.92732,40.6668 l -7.01016,10.9282 3.68738,7.2823 c 5.11081,10.0935 7.37776,19.4991 7.34058,30.456 -0.0357,10.5047 -2.68238,23.2205 -5.8346,28.0314 -1.15614,1.7645 -2.10208,3.7714 -2.10208,4.4599 0,0.6884 -1.9104,3.4095 -4.24533,6.0469 l -4.24533,4.7952 h -69.10067 -69.10068 l -3.65399,-5.4194 c -2.0097,-2.9807 -4.85967,-6.9233 -6.33328,-8.7614 l -2.67929,-3.342 -45.01224,0.1346 c -28.44805,0.085 -46.14864,0.6524 -48.10035,1.5417 -1.69846,0.7739 -4.03858,3.0059 -5.20028,4.9601 -1.16169,1.9541 -3.81085,5.1265 -5.88702,7.0497 l -3.77487,3.4968 -37.33333,0.5158 c -20.53333,0.2837 -50.68176,0.3487 -66.99651,0.1445 z m 11.02282,-11.9993 c -7.48514,-18.4211 -9.36258,-37.2474 -4.5579,-45.705 1.71413,-3.0174 1.92845,-2.1507 2.65053,10.7172 0.81523,14.5279 2.2634,20.087 7.29403,28 7.86623,12.3732 13.19088,15.0766 28.43122,14.4351 13.29335,-0.5597 18.90775,-3.3729 24.76805,-12.4109 5.05933,-7.8026 6.27057,-13.9541 5.80453,-29.4793 -0.22922,-7.6361 -0.0232,-13.8826 0.4579,-13.8811 1.56195,0.01 5.06727,12.161 5.92725,20.5549 0.93045,9.0817 -1.50547,21.0395 -6.13427,30.1127 l -2.72184,5.3353 9.02709,-0.075 c 14.32738,-0.1194 17.52514,-1.7919 22.79996,-11.9247 4.34039,-8.3379 4.48567,-9.0968 3.82875,-20 -0.56504,-9.3784 -2.44045,-16.7383 -10.87206,-42.6667 -14.00848,-43.078 -20.593,-69.31704 -14.64282,-58.35096 2.13349,3.93196 20.63109,52.29336 27.92828,73.01766 2.45303,6.9666 5.20978,16.5666 6.12611,21.3333 0.91634,4.7667 2.47997,9.5667 3.47475,10.6667 4.30253,4.7576 85.48493,2.5058 91.56454,-2.5398 1.00735,-0.836 2.20595,-3.4566 2.66354,-5.8235 1.12758,-5.8323 35.79993,-96.97007 36.8912,-96.97007 0.9273,0 -0.2739,8.66387 -2.63504,19.00557 -2.08164,9.1176 -8.66491,29.3802 -16.79041,51.679 -9.15741,25.1308 -10.89181,33.7876 -8.71669,43.5071 1.2476,5.5749 3.00298,8.7605 7.29636,13.2413 l 5.65352,5.9004 h 10.3712 c 9.35472,0 10.27698,-0.2287 9.40977,-2.3334 -5.87885,-14.2675 -7.28642,-40.1121 -2.63236,-48.3333 l 2.64183,-4.6667 0.682,18 c 0.56819,14.9966 1.15835,18.8899 3.5369,23.3334 6.01608,11.2387 11.58085,14.0009 28.20123,13.9979 13.82667,0 18.87963,-2.0738 25.09856,-10.2882 7.0229,-9.2764 9.79925,-18.6291 9.92257,-33.4264 l 0.10793,-12.95 2.60375,5.3333 c 4.79309,9.8179 2.45327,28.5308 -6.12685,49 -0.8922,2.1285 0.15024,2.3334 11.87408,2.3334 18.70708,0 26.67879,-4.1435 33.43356,-17.3778 9.88261,-19.3626 6.17863,-42.5001 -9.29358,-58.0538 -10.66822,-10.7245 -24.65069,-13.8797 -40.56485,-9.1537 l -7.00871,2.0813 2.21318,3.3777 c 2.17307,3.3166 2.15677,3.3604 -0.89997,2.4164 -1.71222,-0.5287 -4.88602,-1.8642 -7.05289,-2.9678 -6.50677,-3.314 -18.91254,-3.5791 -28.29922,-0.6047 -7.76938,2.4619 -8.15366,2.474 -6.74207,0.2137 3.07614,-4.9256 11.70485,-8.3439 23.56213,-9.3339 6.2804,-0.5245 16.70027,-2.6039 23.15526,-4.621 9.22173,-2.8817 13.38193,-3.5183 19.41676,-2.9711 7.27456,0.6597 20.28207,5.9234 22.16456,8.9693 0.46184,0.7473 2.17753,1.3587 3.81264,1.3587 3.45755,0 8.40767,-7.5108 16.69645,-25.3333 9.80722,-21.08755 14.97276,-41.54189 17.59361,-69.6667 4.11498,-44.15854 -8.81787,-99.01187 -33.10864,-140.42685 -6.80404,-11.60067 -19.00839,-28.98758 -19.79503,-28.20095 -0.32586,0.32586 0.28829,10.12543 1.36477,21.77681 1.07648,11.65138 2.35783,26.94021 2.84743,33.97517 0.86415,12.41659 0.7964,12.86523 -2.3154,15.33333 -4.62468,3.66803 -4.75972,4.04217 -7.06682,19.57972 -2.637,17.7593 -8.79058,39.84983 -14.53084,52.16381 -8.19731,17.58482 -21.35909,31.98492 -33.23709,36.36419 -6.09383,2.24672 -18.28945,2.10491 -25.07777,-0.2916 -3.20887,-1.13284 -7.20679,-1.71577 -8.88426,-1.2954 -10.09624,2.53011 -25.10959,-9.092 -28.41741,-21.99843 -1.36699,-5.33371 -3.63915,-9.06986 -9.34491,-15.36593 -10.67509,-11.77955 -13.83865,-21.37161 -13.83458,-41.9472 0.004,-19.53584 -0.016,-19.47832 20.94546,-60.66666 10.1279,-19.90088 12.27207,-27.75446 11.17359,-40.92619 -0.47736,-5.72393 -0.52015,-10.40714 -0.0951,-10.40714 0.42506,0 2.04105,2.85 3.59109,6.33333 4.82283,10.83817 4.01289,19.65153 -3.52278,38.33333 -3.54966,8.8 -9.0649,21.2139 -12.2561,27.58645 -7.2345,14.44668 -11.18932,28.45349 -11.18932,39.62928 0,14.88752 8.02119,38.24358 11.71702,34.1176 0.65688,-0.73333 1.96462,-4.93333 2.90608,-9.33333 1.88555,-8.81234 6.92,-21.14822 9.20797,-22.56226 0.9751,-0.60265 1.25613,0.33975 0.84371,2.82931 -6.79839,41.03801 -3.49103,59.07668 11.57546,63.13366 12.97684,3.4943 26.06383,-8.2959 33.00447,-29.73405 0.89032,-2.75 2.19942,-5 2.90911,-5 2.86068,0 -2.07481,18.60441 -8.10399,30.54815 -2.32894,4.6136 -4.04467,8.57812 -3.81275,8.81004 0.86888,0.86888 13.41508,-2.05578 17.85311,-4.16176 10.83303,-5.14061 21.49936,-21.82817 29.77413,-46.58189 6.18181,-18.4927 8.56946,-34.45214 8.51983,-56.94787 -0.0239,-10.81666 0.16335,-19.66666 0.41604,-19.66666 0.25269,0 1.64725,2.25 3.09903,5 l 2.63959,5 0.0589,-6.38589 c 0.22152,-24.00523 -7.42568,-64.98187 -17.77103,-95.22398 -6.19817,-18.11886 -19.52034,-48.39012 -21.29616,-48.39012 -0.23426,0 -6.97672,2.33677 -14.98324,5.19282 -15.52231,5.53706 -42.97928,11.96749 -65.89064,15.43161 -20.04616,3.03091 -57.30735,4.06241 -77.10178,2.1344 -37.38702,-3.64156 -84.68797,-14.32662 -102.06946,-23.05701 -4.30396,-2.16179 -5.45879,-2.29869 -6.88566,-0.81628 -2.45513,2.55067 -18.49276,43.56745 -22.59253,57.78112 -6.54167,22.67965 -10.01723,45.39384 -10.01723,65.46665 0,6.80678 0.53568,12.70703 1.19039,13.11167 0.65472,0.40464 2.55606,-3.13273 4.22522,-7.86081 1.66915,-4.72808 3.53348,-8.28832 4.14294,-7.91165 0.60946,0.37666 1.10862,4.69944 1.10923,9.60616 0.002,13.47241 2.38912,36.65475 5.31279,51.58797 8.29698,42.37846 26.71198,73.22655 50.26538,84.20264 15.38171,7.16801 17.46836,5.88856 10.64085,-6.52456 -4.94023,-8.98186 -6.86444,-14.43062 -8.24413,-23.34475 -1.26543,-8.1759 1.17459,-7.06856 4.59851,2.08692 5.48061,14.65501 17.82221,26.91308 27.09648,26.91308 4.81177,0 11.70649,-5.25147 14.87969,-11.33333 2.37774,-4.55728 2.7777,-7.6615 2.74862,-21.33333 -0.0188,-8.81898 -0.83422,-19.174 -1.81692,-23.07197 -0.98059,-3.88958 -1.51227,-7.34259 -1.18151,-7.67335 1.25673,-1.25673 7.5981,12.4603 9.78436,21.16454 l 2.28211,9.08589 2.39685,-3.65379 c 4.13377,-6.30157 6.97035,-20.9362 6.25596,-32.27605 -0.90303,-14.33402 -4.25131,-22.56094 -21.13833,-51.93811 -8.12409,-14.1329 -16.01884,-29.1329 -17.5439,-33.33333 -3.73143,-10.27743 -3.79256,-24.1817 -0.14201,-32.30382 l 2.69674,-6 -0.0165,12 c -0.0218,15.84297 1.64319,20.14135 19.10902,49.33333 23.15034,38.69293 25.86106,45.6555 25.95512,66.66666 0.086,19.20161 -4.2632,32.70851 -13.25794,41.17423 -2.98614,2.81051 -5.12437,6.65221 -6.59438,11.84796 -2.75849,9.74984 -10.93918,18.77525 -18.75465,20.6912 -28.31421,6.9412 -31.11609,7.36066 -37.40527,5.5998 -26.91971,-7.53706 -51.1067,-44.07493 -61.89895,-93.50716 -1.38418,-6.34002 -4.42136,-15.30042 -6.74927,-19.912 -3.77392,-7.4761 -4.39052,-8.10526 -5.6901,-5.80603 -1.31717,2.33035 -1.55837,2.12928 -2.5048,-2.088 -2.44339,-10.88776 -2.71114,-38.0698 -0.56362,-57.21721 1.18545,-10.56947 1.89235,-19.48022 1.5709,-19.80168 -1.27414,-1.27413 -14.95433,13.06385 -24.29876,25.46713 -17.18812,22.81456 -31.6501,55.8929 -37.75858,86.36379 -4.85283,24.20738 -6.04057,47.05483 -3.63142,69.85463 2.58114,24.42741 8.55733,48.36375 15.25921,61.1175 3.85203,7.3304 21.31349,31.1543 28.36692,38.703 0.59299,0.6347 3.07892,-0.34 5.52429,-2.166 6.68792,-4.9938 9.76077,-6.3171 19.30928,-8.3149 9.82134,-2.0549 19.04048,-1.0979 27.8035,2.8862 4.0131,1.8245 8.63394,2.4268 18.66667,2.4328 12.18554,0.01 13.87854,0.3285 19.66667,3.7309 3.48333,2.0476 6.33333,4.2433 6.33333,4.8793 0,0.6361 -3.15,0.3179 -7,-0.707 -10.30842,-2.7442 -18.12685,-2.334 -27.4103,1.4382 -9.85737,4.0054 -9.98612,4.0162 -8.94856,0.7471 0.67064,-2.113 -0.10586,-2.8584 -4.24348,-4.0734 -17.23456,-5.0611 -31.04099,-2.4194 -41.72042,7.9827 -24.17106,23.5433 -18.24578,67.8897 9.98943,74.7635 2.2,0.5356 9.80796,1.0352 16.90659,1.1103 l 12.90659,0.1365 z M 397.26203,692.01037 c 23.64778,-3.45481 49.0073,-8.60001 60.07129,-12.18789 4.76667,-1.54575 16.161,-6.36603 25.32074,-10.71173 32.36432,-15.35475 44.07138,-24.93049 54.19706,-44.33025 l 5.30985,-10.17315 2.45856,7.69631 c 2.42882,7.60321 2.47273,7.64791 3.63053,3.6963 2.05581,-7.0166 1.7094,-17.05466 -0.75032,-21.74267 -2.71576,-5.176 -11.65292,-11.20703 -20.12037,-13.57777 -7.46134,-2.08905 -6.60288,-4.01289 1.79064,-4.01289 8.45984,0 19.11721,3.29192 24.024,7.42071 3.89237,3.27522 4.02064,3.29237 5.39656,0.72145 4.24814,-7.93774 -0.0437,-18.96695 -12.44068,-31.97009 l -8.14991,-8.54841 10,0.73337 c 5.84728,0.42883 13.77089,2.15583 19.08051,4.15872 l 9.0805,3.42535 -0.91608,-2.97055 c -2.69014,-8.72321 -15.14392,-21.86095 -36.15969,-38.14556 -9.59049,-7.43143 -13.44869,-11.57265 -12.06805,-12.95328 0.22731,-0.22731 3.58386,0.51614 7.459,1.6521 3.87515,1.13597 7.38493,1.72619 7.79951,1.31161 0.41458,-0.41458 -2.64907,-4.42928 -6.80812,-8.92155 -11.16304,-12.05741 -15.4481,-21.94068 -26.75521,-61.7095 -5.54122,-19.48931 -11.83018,-40.19557 -13.97548,-46.01391 -7.96371,-21.59875 -19.18317,-41.16222 -32.44084,-56.56739 -7.49914,-8.71386 -7.36373,-7.00794 -2.40331,-30.27811 3.35846,-15.75506 6.19038,-39.51989 8.79776,-73.82868 1.10698,-14.56605 2.96276,-30.76605 4.12396,-35.99999 3.06244,-13.80355 9.75295,-26.75246 19.85458,-38.42686 10.35488,-11.96709 19.92519,-19.54517 55.33096,-43.81288 14.3,-9.80146 30.44562,-21.002742 35.87916,-24.891743 5.43353,-3.889002 10.1251,-6.824959 10.42571,-6.524349 2.38163,2.381622 -14.22873,16.618732 -52.28512,44.814752 -13.18914,9.77185 -27.21593,20.81751 -31.17065,24.54591 -8.52349,8.0357 -23.52971,26.88853 -25.47506,32.00518 -1.69336,4.45389 -1.90631,95.22414 -0.21906,93.37372 0.63524,-0.69667 2.23067,-5.34024 3.54541,-10.31905 1.31473,-4.97881 2.80726,-9.30999 3.31672,-9.62485 1.66483,-1.02892 4.0816,6.21463 5.29647,15.8746 2.37607,18.89309 -3.30861,43.34809 -14.17247,60.96874 l -5.81824,9.43692 4.26242,5.53181 c 2.34434,3.0425 4.44073,5.77586 4.65865,6.07412 0.90215,1.23476 23.14013,-14.82948 32.32808,-23.35313 13.97044,-12.96035 24.5788,-26.83802 31.34449,-41.00428 7.86075,-16.45918 38.77984,-109.04158 41.47313,-124.18488 1.17384,-6.59999 2.47942,-21.88169 2.90128,-33.95932 0.56034,-16.04196 1.11078,-21.07205 2.04268,-18.66667 1.983,5.11849 0.087,41.47031 -2.94943,56.54857 -1.46819,7.29075 -4.53961,19.29075 -6.82538,26.66667 -8.46399,27.31227 -30.91645,89.5142 -35.84376,99.30091 -10.55723,20.96898 -26.59032,38.55321 -48.38169,53.06246 -7.15,4.76064 -13,8.90583 -13,9.21152 0,2.01 12.29254,24.50252 13.39104,24.50252 2.21901,0 14.66981,-6.63005 23.27562,-12.39427 11.71884,-7.84934 29.54761,-26.4584 39.18185,-40.89668 31.68819,-47.48923 49.4891,-119.47195 49.46932,-200.04237 -0.008,-34.010892 -1.62567,-48.40379 -6.09798,-54.267296 -9.82085,-12.875789 -31.96716,-12.75795 -62.43811,0.33223 -6.29662,2.705003 -11.44841,5.42052 -11.44841,6.034482 0,0.613962 -4.05,3.491975 -9,6.395584 -23.95028,14.04894 -40.46645,28.72053 -61.73287,54.83833 -20.66564,25.37997 -29.28761,39.36206 -39.05414,63.33333 -9.79805,24.04865 -19.1202,63.10191 -20.77161,87.01845 -0.51972,7.52681 -1.53063,14.2708 -2.24648,14.98665 -0.84649,0.84649 -4.7791,0.52676 -11.24821,-0.91452 -6.49783,-1.44767 -16.18791,-2.23036 -27.94668,-2.25733 -30.70338,-0.0704 -51.94482,7.14695 -71.11857,24.16444 -2.81522,2.49862 -5.45617,4.20534 -5.86879,3.79272 -0.41262,-0.41262 1.46727,-4.08999 4.17754,-8.17195 7.5064,-11.30545 7.6818,-12.24896 5.44679,-29.29858 -4.00083,-30.52012 -13.05269,-58.95122 -29.28655,-91.98654 -16.32062,-33.2119 -35.72687,-60.11201 -59.81531,-82.91346 -31.33738,-29.663078 -71.51635,-46.716211 -94.86844,-40.264938 -8.007,2.212023 -14.733001,9.985155 -16.835424,19.456438 -2.785472,12.54837 -2.389205,87.37598 0.573386,108.27317 10.346808,72.98313 35.706468,129.5138 71.682488,159.79155 9.67314,8.14101 28.20449,18.99056 32.43643,18.99056 1.32938,0 4.35246,-4.45236 8.12974,-11.97336 3.30736,-6.58535 6.01338,-12.49528 6.01338,-13.13319 0,-0.63791 -4.95,-4.4626 -11,-8.49931 -22.64683,-15.11052 -34.1308,-28.43229 -46.31553,-53.72747 -15.18599,-31.52573 -38.17116,-97.83551 -43.27901,-124.85535 -2.67502,-14.15054 -3.91164,-35.81006 -2.27296,-39.81131 1.21311,-2.96212 1.37455,-2.62219 1.44965,3.05256 0.14051,10.61636 2.775,31.55994 5.57009,44.28077 3.192,14.52725 10.60006,36.94994 25.10904,76 18.71499,50.37027 26.98635,64.3123 47.54017,80.13276 12.92063,9.94512 24.44166,17.86723 25.98409,17.86723 0.63414,0 2.14812,-1.51877 3.36441,-3.37506 2.15836,-3.29408 2.05134,-3.63797 -4.46089,-14.33333 -12.81507,-21.04683 -15.44249,-27.8933 -17.75091,-46.25489 -1.38952,-11.05252 -0.57866,-28.03671 1.33852,-28.03671 0.53131,0 2.65681,4.2 4.72333,9.33333 2.06651,5.13333 4.26191,9.33333 4.87865,9.33333 0.61674,0 1.12135,-19.99109 1.12135,-44.42466 0,-52.86185 -0.1966,-53.98186 -11.64597,-66.34856 -9.57924,-10.34672 -29.17945,-26.06092 -56.01005,-44.9053 -18.72282,-13.14991 -34.97663,-26.98813 -31.69915,-26.98813 2.12042,0 19.27713,10.56519 49.35517,30.39316 50.29105,33.15275 58.23073,44.68002 67.27744,97.67717 2.30925,13.52798 7.16652,40.89372 10.79393,60.81277 3.62741,19.91904 6.59529,37.74816 6.59529,39.62027 0,1.8721 -1.72191,5.3747 -3.82647,7.78355 -6.32815,7.24312 -16.14227,23.25598 -22.18262,36.19348 -7.47101,16.00174 -12.48106,30.36684 -22.1534,63.51958 -8.88939,30.46909 -14.93414,44.20476 -25.52447,57.99999 -3.94075,5.13333 -10.36614,15.33333 -14.27864,22.66667 -3.91249,7.33333 -11.5208,21.0381 -16.90734,30.45503 -5.38655,9.41694 -9.79372,17.32922 -9.79372,17.58284 0,1.37211 11.70056,-1.71029 23.82906,-6.27754 7.60599,-2.86419 14.40882,-5.01437 15.11741,-4.77818 0.70858,0.2362 -4.19068,5.43706 -10.88725,11.55747 C 145.94098,578.33923 140,586.38345 140,591.42283 c 0,1.59093 0.64272,1.91477 2.33333,1.17565 10.51504,-4.59711 31.21789,-7.48203 33,-4.59852 0.45322,0.73333 -0.26137,1.33919 -1.58798,1.34636 -4.38943,0.0237 -15.93829,6.2688 -21.05516,11.38567 -2.77055,2.77054 -6.43385,8.08924 -8.14068,11.81932 -3.28199,7.17244 -7.8297,23.27957 -6.84953,24.25974 0.31902,0.31902 8.81847,-2.43297 18.88767,-6.11553 10.0692,-3.68256 18.86372,-6.69556 19.54338,-6.69556 0.67966,0 -0.23323,2.32701 -2.02865,5.17114 -4.33988,6.87481 -6.93842,13.27276 -8.04074,19.79731 l -0.90616,5.36352 11.75559,0.65742 c 11.01239,0.61586 13.35719,1.33032 37.08892,11.30107 37.98009,15.9571 49.57004,19.28519 85.03633,24.41842 40.89519,5.91899 64.48054,6.23151 98.22571,1.30153 z m -44.66884,-6.73808 c -3.97172,-1.18359 -10.99065,-7.31933 -9.76964,-8.54034 0.33652,-0.33652 2.98889,0.23478 5.89415,1.26955 7.62357,2.7153 12.66327,2.42055 19.72298,-1.15353 4.85129,-2.45604 6.22598,-2.72779 6.22598,-1.23077 0,2.73658 -7.33185,9.71262 -10.23077,9.73429 -1.33975,0.01 -3.6359,0.26942 -5.10257,0.57646 -1.46666,0.30704 -4.49972,0.012 -6.74013,-0.65566 z m -38.5932,-29.7485 c -7.17114,-3.35264 -22,-16.9808 -22,-20.21865 0,-2.86782 2.48839,-2.42433 7.3947,1.31789 2.37219,1.80936 8.90733,5.70936 14.52253,8.66667 8.06731,4.24873 11.64033,5.37692 17.02897,5.37692 8.51668,0 16.87816,-4.57701 21.23253,-11.62253 2.71437,-4.39194 3.08203,-6.69785 3.11604,-19.54355 l 0.0386,-14.56409 -11.33333,-5.73794 c -13.8338,-7.00391 -17.31763,-10.90336 -17.32671,-19.39376 -0.006,-5.41633 0.58083,-6.711 4.66598,-10.29781 2.56994,-2.25644 8.06895,-5.08995 12.22004,-6.2967 15.63147,-4.5442 39.37596,0.28481 43.83918,8.91573 6.01109,11.62416 -1.64489,23.24305 -19.695,29.8896 -3.46309,1.2752 -6.58997,3.29336 -6.94863,4.4848 -1.42326,4.72795 1.39558,30.14105 3.74003,33.71805 5.0465,7.69958 20.68418,11.15187 32.59469,7.19583 3.73317,-1.23996 10.4917,-5.21543 15.01895,-8.83438 8.23572,-6.5834 11.01417,-7.74476 12.55687,-5.24863 1.51253,2.44732 -12.75524,15.87918 -21.37496,20.12265 -14.63589,7.20523 -32.27695,4.90871 -41.96567,-5.4631 l -3.79831,-4.06611 -3.47904,4.56125 c -7.58346,9.94243 -26.66282,13.29539 -40.04742,7.03786 z m 55.94595,-60.92015 c 10.20081,-5.17259 12.48358,-7.31707 13.48795,-12.67081 1.70165,-9.07062 -1.22238,-11.49171 -16.50151,-13.66319 -9.783,-1.39037 -28.0131,0.75424 -31.58083,3.71519 -3.8259,3.17522 -4.86402,7.67207 -2.87185,12.44001 1.37941,3.30139 4.03569,5.44967 11.46155,9.26955 5.3163,2.73473 11.55437,4.96463 13.86237,4.95534 2.308,-0.009 7.77205,-1.83003 12.14232,-4.04609 z m -112.5015,18.17565 c 0.74346,-0.74138 21.87158,-6.11267 24.04437,-6.11267 1.05387,0 1.22462,0.44797 0.44451,1.16619 -2.12258,1.95422 -26.40721,6.85944 -24.48888,4.94648 z m 185.48821,-3.92896 c -3.88704,-0.83437 -7.03704,-1.96704 -7,-2.51704 0.037,-0.55 0.37651,-1.04098 0.75438,-1.09106 1.97674,-0.262 15.53306,3.3685 16.11917,4.31685 0.83843,1.35661 -0.7996,1.23902 -9.87355,-0.70875 z M 261.99999,595.99996 c -3.78526,-0.67774 -1.07613,-1.00391 9.33334,-1.12371 9.89956,-0.11393 14.0166,0.25131 12.66666,1.12371 -2.24387,1.4501 -13.90103,1.4501 -22,0 z m 170.66666,-2.50671 c 3.75281,-1.60772 29.85488,-3.23121 27.33334,-1.70007 -1.1,0.66794 -8.3,1.58075 -16,2.02847 -8.168,0.47492 -12.88915,0.33812 -11.33334,-0.3284 z M 276.66666,579.71216 c -12.86295,-4.37048 -13.49303,-4.66361 -12.39175,-5.76489 0.95598,-0.95599 26.38827,7.7681 26.39022,9.05269 0.002,1.40798 -0.58169,1.27086 -13.99847,-3.2878 z m 149.08171,2.09497 c 1.52825,-1.52825 20.18989,-9.7572 22.18495,-9.78258 3.41581,-0.0435 -0.23978,2.20256 -10.57475,6.49716 -9.65276,4.01112 -13.39481,5.07003 -11.6102,3.28542 z M 253.05031,537.3333 c -18.85565,-6.23334 -34.30565,-11.66177 -34.33333,-12.06319 -0.0277,-0.40143 3.93943,-0.47581 8.8158,-0.16531 8.79161,0.55981 8.85891,0.53793 8.00907,-2.60348 -1.98021,-7.31974 -2.48943,-25.13063 -0.97006,-33.92966 3.14444,-18.2103 14.08147,-35.03568 24.07329,-37.03404 4.98228,-0.99646 13.06974,1.33932 18.29874,5.28496 13.13969,9.91479 20.77495,47.74278 14.36655,71.17738 -1.30349,4.76667 -2.73157,11.36667 -3.17351,14.66667 l -0.80354,6 z m 33.37428,-9.52345 c 1.63513,-6.70456 2.65851,-12.50456 2.27418,-12.88888 -0.90766,-0.90767 -0.66054,-1.27931 -7.29996,10.97831 -5.39927,9.96807 -5.58636,10.66599 -3.30613,12.33333 1.32934,0.97204 3.07893,1.76735 3.88797,1.76735 0.80903,0 2.80881,-5.48555 4.44394,-12.19011 z m -16.9887,-34.37399 c 3.05666,-3.05666 3.89744,-5.09221 3.89744,-9.43589 0,-6.71044 -5.62947,-13.33334 -11.33334,-13.33334 -5.70387,0 -11.33333,6.6229 -11.33333,13.33334 0,6.71043 5.62946,13.33333 11.33333,13.33333 2.13316,0 5.08634,-1.54788 7.4359,-3.89744 z m 156.66067,54.19352 c -0.25179,-0.89618 -2.17653,-7.32942 -4.27719,-14.29608 -3.24791,-10.77142 -3.81938,-14.96091 -3.81938,-28 0,-13.28908 0.5112,-16.89294 3.83436,-27.03145 6.20761,-18.93857 13.70508,-26.72459 25.74843,-26.73944 19.09984,-0.0236 33.1296,34.03837 28.04124,68.07941 l -1.04263,6.9752 3.7093,-0.5765 c 9.84137,-1.52955 13.7093,-1.7936 13.7093,-0.93589 0,0.51536 -9.15,4.15752 -20.33334,8.09369 -11.18333,3.93618 -25.90859,9.16004 -32.7228,11.60858 -8.75491,3.14589 -12.52378,3.97389 -12.84729,2.82248 z m 7.79438,-8.43874 c 3.06088,-1.17457 2.76473,-2.17879 -4.20335,-14.2528 -6.93484,-12.01641 -8.43469,-11.44533 -4.97778,1.89534 3.31935,12.80979 4.35829,14.20816 9.18113,12.35746 z m 16.87828,-45.75478 c 10.21795,-10.21795 -1.05038,-28.06442 -13.50975,-21.39637 -3.16956,1.6963 -6.60885,8.12113 -6.54557,12.2276 0.10375,6.73282 6.30435,12.91615 13.05532,13.01896 1.70641,0.026 4.85641,-1.7066 7,-3.85019 z M 236.86136,416.4488 c 2.90649,-8.21582 12.01895,-15.24247 22.25817,-17.16336 6.90786,-1.29592 15.54143,2.24252 21.46236,8.79628 6.25045,6.9185 6.06837,9.10223 -0.33021,3.96019 -11.75791,-9.44891 -26.4483,-8.81981 -38.33306,1.64158 -3.77455,3.32248 -5.60928,4.32572 -5.05726,2.76531 z m 237.77315,-1.14971 c -1.73457,-1.84637 -6.34373,-4.91773 -10.24258,-6.82526 -9.51137,-4.65348 -18.79413,-4.02789 -28.34677,1.91035 -7.40491,4.60315 -8.47015,3.91003 -3.34739,-2.17803 4.25303,-5.05444 13.41362,-9.53951 19.4841,-9.53951 7.13245,0 18.48321,6.39296 23.04993,12.98215 4.46807,6.44685 4.1064,8.65715 -0.59729,3.6503 z m -241.06186,-75.34597 7.57266,-6.6758 -3.86832,-11.44401 c -2.12758,-6.29421 -5.67061,-20.83161 -7.8734,-32.30534 -3.74536,-19.5085 -4.87118,-25.73975 -10.09263,-55.86132 -3.01052,-17.36706 -4.96493,-25.70744 -6.20343,-26.47288 -2.23747,-1.38284 -1.83952,67.73844 0.47886,83.17338 0.80138,5.33527 1.10894,10.04861 0.68347,10.47408 -0.42547,0.42547 -3.50631,-3.48976 -6.84632,-8.7005 -3.34,-5.21075 -6.4647,-9.47408 -6.94379,-9.47408 -1.67271,0 0.79726,19.53689 3.63232,28.73083 4.65607,15.09934 16.30874,35.29919 20.33481,35.2503 0.85421,-0.0104 4.96081,-3.02297 9.12577,-6.69466 z m 249.70462,-12.02241 c 2.65448,-5.05149 5.74124,-12.05243 6.85946,-15.55763 2.30039,-7.21083 4.21206,-36.38197 2.38257,-36.35675 -0.65229,0.009 -3.78846,4.509 -6.96926,10 -3.1808,5.49101 -6.1893,9.98365 -6.68555,9.98365 -0.49626,0 -0.17947,-7.65 0.70397,-17 1.83854,-19.45851 2.18183,-43.14319 0.84741,-58.46549 -0.80258,-9.21547 -1.04668,-9.95019 -1.94954,-5.86784 -0.56765,2.56667 -1.65866,13.96667 -2.42446,25.33333 -2.78313,41.30979 -6.57222,62.89153 -14.42916,82.18504 -3.20741,7.87611 -2.95993,8.46839 6.26971,15.005 5.42781,3.84409 6.06351,4.00218 8.22547,2.04563 1.28868,-1.16623 4.51489,-6.25346 7.16938,-11.30494 z"
       id="path1" />
  </g>
</svg>
